<?xml version="1.0" encoding="UTF-8" standalone="no"?>
<!DOCTYPE svg PUBLIC "-//W3C//DTD SVG 1.1//EN"
 "http://www.w3.org/Graphics/SVG/1.1/DTD/svg11.dtd">
<!-- Generated by graphviz version 2.40.1 (20161225.0304)
 -->
<!-- Title: dependencies Pages: 1 -->
<svg width="1035pt" height="284pt"
 viewBox="0.00 0.00 1035.00 284.00" xmlns="http://www.w3.org/2000/svg" xmlns:xlink="http://www.w3.org/1999/xlink">
<g id="graph0" class="graph" transform="scale(1 1) rotate(0) translate(4 280)">
<title>dependencies</title>
<polygon fill="#ffffff" stroke="transparent" points="-4,4 -4,-280 1031,-280 1031,4 -4,4"/>
<text text-anchor="start" x="492.5091" y="-42.4" font-family="sans-serif" font-weight="bold" font-size="14.00" fill="#000000">Legend</text>
<polygon fill="#ffffb3" stroke="transparent" points="279.5,-10 279.5,-30 299.5,-30 299.5,-10 279.5,-10"/>
<text text-anchor="start" x="303.129" y="-15.4" font-family="sans-serif" font-size="14.00" fill="#000000"> &#160;Declarations</text>
<polygon fill="#8dd3c7" stroke="transparent" points="392.5,-10 392.5,-30 412.5,-30 412.5,-10 392.5,-10"/>
<text text-anchor="start" x="416.2251" y="-15.4" font-family="sans-serif" font-size="14.00" fill="#000000"> &#160;Module</text>
<polygon fill="#80b1d3" stroke="transparent" points="478.5,-10 478.5,-30 498.5,-30 498.5,-10 478.5,-10"/>
<text text-anchor="start" x="502.2812" y="-15.4" font-family="sans-serif" font-size="14.00" fill="#000000"> &#160;Bootstrap</text>
<polygon fill="#fdb462" stroke="transparent" points="575.5,-10 575.5,-30 595.5,-30 595.5,-10 575.5,-10"/>
<text text-anchor="start" x="599.1732" y="-15.4" font-family="sans-serif" font-size="14.00" fill="#000000"> &#160;Providers</text>
<polygon fill="#fb8072" stroke="transparent" points="671.5,-10 671.5,-30 691.5,-30 691.5,-10 671.5,-10"/>
<text text-anchor="start" x="695.2258" y="-15.4" font-family="sans-serif" font-size="14.00" fill="#000000"> &#160;Exports</text>
<g id="clust1" class="cluster">
<title>cluster_AppModule</title>
<polygon fill="none" stroke="#000000" stroke-dasharray="1,5" points="8,-70 8,-268 1019,-268 1019,-70 8,-70"/>
</g>
<g id="clust2" class="cluster">
<title>cluster_AppModule_declarations</title>
<polygon fill="none" stroke="#000000" points="472,-78 472,-130 1011,-130 1011,-78 472,-78"/>
</g>
<g id="clust7" class="cluster">
<title>cluster_AppModule_imports</title>
<polygon fill="none" stroke="#000000" points="320,-78 320,-130 464,-130 464,-78 320,-78"/>
</g>
<g id="clust9" class="cluster">
<title>cluster_AppModule_bootstrap</title>
<polygon fill="none" stroke="#000000" points="547,-208 547,-260 671,-260 671,-208 547,-208"/>
</g>
<g id="clust10" class="cluster">
<title>cluster_AppModule_providers</title>
<polygon fill="none" stroke="#000000" points="16,-78 16,-130 312,-130 312,-78 16,-78"/>
</g>
<!-- AppComponent -->
<g id="node1" class="node">
<title>AppComponent</title>
<polygon fill="#ffffb3" stroke="#000000" points="1002.9399,-122 897.0601,-122 897.0601,-86 1002.9399,-86 1002.9399,-122"/>
<text text-anchor="middle" x="950" y="-99.8" font-family="Times,serif" font-size="14.00" fill="#000000">AppComponent</text>
</g>
<!-- AppModule -->
<g id="node5" class="node">
<title>AppModule</title>
<polygon fill="#8dd3c7" stroke="#000000" points="650.6571,-187 647.6571,-191 626.6571,-191 623.6571,-187 567.3429,-187 567.3429,-151 650.6571,-151 650.6571,-187"/>
<text text-anchor="middle" x="609" y="-164.8" font-family="Times,serif" font-size="14.00" fill="#000000">AppModule</text>
</g>
<!-- AppComponent&#45;&gt;AppModule -->
<g id="edge1" class="edge">
<title>AppComponent&#45;&gt;AppModule</title>
<path fill="none" stroke="#000000" d="M950,-122.2843C950,-143.3211 950,-175 950,-175 950,-175 660.8133,-175 660.8133,-175"/>
<polygon fill="#000000" stroke="#000000" points="660.8133,-171.5001 650.8133,-175 660.8133,-178.5001 660.8133,-171.5001"/>
</g>
<!-- DevicesComponent -->
<g id="node2" class="node">
<title>DevicesComponent</title>
<polygon fill="#ffffb3" stroke="#000000" points="879.4187,-122 752.5813,-122 752.5813,-86 879.4187,-86 879.4187,-122"/>
<text text-anchor="middle" x="816" y="-99.8" font-family="Times,serif" font-size="14.00" fill="#000000">DevicesComponent</text>
</g>
<!-- DevicesComponent&#45;&gt;AppModule -->
<g id="edge2" class="edge">
<title>DevicesComponent&#45;&gt;AppModule</title>
<path fill="none" stroke="#000000" d="M816,-122.0225C816,-139.3734 816,-163 816,-163 816,-163 660.8895,-163 660.8895,-163"/>
<polygon fill="#000000" stroke="#000000" points="660.8896,-159.5001 650.8895,-163 660.8895,-166.5001 660.8896,-159.5001"/>
</g>
<!-- LoginComponent -->
<g id="node3" class="node">
<title>LoginComponent</title>
<polygon fill="#ffffb3" stroke="#000000" points="734.2758,-122 619.7242,-122 619.7242,-86 734.2758,-86 734.2758,-122"/>
<text text-anchor="middle" x="677" y="-99.8" font-family="Times,serif" font-size="14.00" fill="#000000">LoginComponent</text>
</g>
<!-- LoginComponent&#45;&gt;AppModule -->
<g id="edge3" class="edge">
<title>LoginComponent&#45;&gt;AppModule</title>
<path fill="none" stroke="#000000" d="M635.2202,-122.1061C635.2202,-122.1061 635.2202,-140.991 635.2202,-140.991"/>
<polygon fill="#000000" stroke="#000000" points="631.7203,-140.9909 635.2202,-150.991 638.7203,-140.991 631.7203,-140.9909"/>
</g>
<!-- LogoutComponent -->
<g id="node4" class="node">
<title>LogoutComponent</title>
<polygon fill="#ffffb3" stroke="#000000" points="601.7758,-122 480.2242,-122 480.2242,-86 601.7758,-86 601.7758,-122"/>
<text text-anchor="middle" x="541" y="-99.8" font-family="Times,serif" font-size="14.00" fill="#000000">LogoutComponent</text>
</g>
<!-- LogoutComponent&#45;&gt;AppModule -->
<g id="edge4" class="edge">
<title>LogoutComponent&#45;&gt;AppModule</title>
<path fill="none" stroke="#000000" d="M584.5298,-122.1061C584.5298,-122.1061 584.5298,-140.991 584.5298,-140.991"/>
<polygon fill="#000000" stroke="#000000" points="581.0299,-140.9909 584.5298,-150.991 588.0299,-140.991 581.0299,-140.9909"/>
</g>
<!-- AppComponent  -->
<g id="node7" class="node">
<title>AppComponent </title>
<polygon fill="#80b1d3" stroke="#000000" points="663.439,-252 554.561,-252 554.561,-216 663.439,-216 663.439,-252"/>
<text text-anchor="middle" x="609" y="-229.8" font-family="Times,serif" font-size="14.00" fill="#000000">AppComponent </text>
</g>
<!-- AppModule&#45;&gt;AppComponent  -->
<g id="edge6" class="edge">
<title>AppModule&#45;&gt;AppComponent </title>
<path fill="none" stroke="#000000" stroke-dasharray="1,5" d="M609,-187.1061C609,-187.1061 609,-205.991 609,-205.991"/>
<polygon fill="#000000" stroke="#000000" points="605.5001,-205.9909 609,-215.991 612.5001,-205.991 605.5001,-205.9909"/>
</g>
<!-- AppRoutingModule -->
<g id="node6" class="node">
<title>AppRoutingModule</title>
<polygon fill="#8dd3c7" stroke="#000000" points="456.2744,-122 453.2744,-126 432.2744,-126 429.2744,-122 327.7256,-122 327.7256,-86 456.2744,-86 456.2744,-122"/>
<text text-anchor="middle" x="392" y="-99.8" font-family="Times,serif" font-size="14.00" fill="#000000">AppRoutingModule</text>
</g>
<!-- AppRoutingModule&#45;&gt;AppModule -->
<g id="edge5" class="edge">
<title>AppRoutingModule&#45;&gt;AppModule</title>
<path fill="none" stroke="#000000" d="M392,-122.0225C392,-139.3734 392,-163 392,-163 392,-163 557.1602,-163 557.1602,-163"/>
<polygon fill="#000000" stroke="#000000" points="557.1603,-166.5001 567.1602,-163 557.1602,-159.5001 557.1603,-166.5001"/>
</g>
<!-- HttpInterceptorBasicAuthService -->
<g id="node8" class="node">
<title>HttpInterceptorBasicAuthService</title>
<ellipse fill="#fdb462" stroke="#000000" cx="164" cy="-104" rx="140.0627" ry="18"/>
<text text-anchor="middle" x="164" y="-99.8" font-family="Times,serif" font-size="14.00" fill="#000000">HttpInterceptorBasicAuthService</text>
</g>
<!-- HttpInterceptorBasicAuthService&#45;&gt;AppModule -->
<g id="edge7" class="edge">
<title>HttpInterceptorBasicAuthService&#45;&gt;AppModule</title>
<path fill="none" stroke="#000000" d="M164,-122.2843C164,-143.3211 164,-175 164,-175 164,-175 557.1355,-175 557.1355,-175"/>
<polygon fill="#000000" stroke="#000000" points="557.1355,-178.5001 567.1355,-175 557.1354,-171.5001 557.1355,-178.5001"/>
</g>
</g>
</svg>
